<?xml version="1.0" standalone="no"?><!DOCTYPE svg PUBLIC "-//W3C//DTD SVG 1.1//EN" "http://www.w3.org/Graphics/SVG/1.1/DTD/svg11.dtd"><svg t="1714448064222" class="icon" viewBox="0 0 1024 1024" version="1.1" xmlns="http://www.w3.org/2000/svg" p-id="6473" xmlns:xlink="http://www.w3.org/1999/xlink" width="200" height="200"><path d="M680.188 484.3c0 210.4-131.44 345.988-293.56 345.988S93.08 694.7 93.08 484.3 224.508 40.468 386.632 40.468c162.12 0 293.556 233.432 293.556 443.832z" fill="#96E0C2" p-id="6474"></path><path d="M462.7 62.408c84.36 74.548 142.624 227.46 142.624 369.208 0 196.908-112.412 323.8-251.064 323.8-135.696 0-246.176-121.572-250.84-311.32a530.92 530.92 0 0 0-2.248 48.296c0 210.4 131.428 345.988 293.552 345.988 162.12 0 293.556-135.588 293.556-345.988 0-180.032-96.236-376.896-225.58-429.984z" fill="#89CCB1" p-id="6475"></path><path d="M370.24 396.72h32.372V1024h-32.376z" fill="#6E6E96" p-id="6476"></path><path d="M524.744 490.488l22.896 22.888-149.72 149.76-22.892-22.892z" fill="#6E6E96" p-id="6477"></path><path d="M386.424 991.62h265.248V1024H386.424zM728.56 991.62h109.268V1024h-109.264z" fill="#6E6E96" opacity=".27" p-id="6478"></path><path d="M386.632 846.476c-179.476 0-309.74-152.32-309.74-362.176 0-105.48 33.068-221.148 88.452-309.42C226.288 77.76 304.88 24.28 386.632 24.28s160.34 53.484 221.284 150.6c55.396 88.268 88.456 203.94 88.456 309.42 0 209.856-130.26 362.176-309.74 362.176z m0-789.82c-70.212 0-139.06 48.1-193.86 135.432-52.288 83.324-83.504 192.56-83.504 292.212 0 97.044 28.328 180.448 81.928 241.184 50.428 57.144 119.84 88.616 195.436 88.616s145-31.472 195.432-88.616c53.6-60.74 81.936-144.136 81.936-241.184 0-99.648-31.22-208.88-83.508-292.212-54.8-87.332-123.652-135.432-193.86-135.432z" fill="#6E6E96" p-id="6479"></path></svg>